<?xml version="1.0" encoding="utf-8"?>
<!-- Generator: Adobe Illustrator 15.1.0, SVG Export Plug-In . SVG Version: 6.00 Build 0)  -->
<!DOCTYPE svg PUBLIC "-//W3C//DTD SVG 1.1//EN" "http://www.w3.org/Graphics/SVG/1.1/DTD/svg11.dtd">
<svg version="1.1" id="Kickstarter_logo" xmlns="http://www.w3.org/2000/svg" xmlns:xlink="http://www.w3.org/1999/xlink" x="0px"
	 y="0px" width="612px" height="71.361px" viewBox="0 360.254 612 71.361" enable-background="new 0 360.254 612 71.361"
	 xml:space="preserve">
<path id="Grey" fill="#FFFFFF" d="M22.39,385.001l12.57-18.332c2.357-3.404,5.5-5.106,9.297-5.106c3.143,0,5.761,1.047,7.987,3.273
	c2.226,2.226,3.404,4.845,3.404,7.856c0,2.226-0.655,4.19-1.833,6.023l-11.391,16.498l13.879,17.676
	c1.44,1.703,2.095,3.797,2.095,6.154c0,3.143-1.047,5.762-3.273,7.987s-4.845,3.404-7.987,3.404c-3.404,0-6.023-1.048-7.856-3.273
	l-17.022-21.212v11.784c0,3.404-0.524,5.893-1.702,7.856c-2.095,3.404-5.237,5.106-9.296,5.106c-3.667,0-6.547-1.179-8.511-3.666
	C0.917,424.413,0,421.401,0,417.604v-43.471c0-3.535,0.917-6.546,2.881-8.903c1.964-2.357,4.844-3.667,8.38-3.667
	c3.404,0,6.154,1.31,8.38,3.667c1.309,1.309,2.095,2.75,2.357,4.059c0.262,0.917,0.262,2.488,0.262,4.844v10.868H22.39z
	 M84.978,375.443v42.031c0,3.666-0.917,6.678-2.88,9.035c-1.964,2.618-4.845,3.928-8.38,3.928c-3.273,0-6.023-1.179-8.249-3.666
	c-1.833-1.964-2.881-5.106-2.881-9.297v-42.031c0-4.714,0.917-8.118,2.881-10.213c2.226-2.488,4.976-3.667,8.38-3.667
	s6.154,1.179,8.249,3.535C84.062,367.325,84.978,370.729,84.978,375.443z M125.307,360.254c8.249,0,15.844,2.75,22.783,8.249
	c5.369,4.321,8.118,8.903,8.118,13.617c0,3.928-1.702,7.071-4.976,9.296c-1.833,1.31-3.928,1.833-6.154,1.833
	c-1.833,0-3.535-0.393-5.237-1.31c-0.655-0.393-2.357-2.095-5.106-4.976c-2.488-2.75-5.761-4.19-9.559-4.19
	c-3.666,0-6.809,1.31-9.296,3.797c-2.488,2.619-3.797,5.761-3.797,9.427s1.31,6.809,3.797,9.428s5.63,3.797,9.296,3.797
	c3.012,0,5.892-1.047,8.511-3.143c1.571-1.571,3.273-3.143,4.845-4.713c1.702-1.441,3.928-2.227,6.547-2.227
	c3.012,0,5.63,1.047,7.987,3.143c2.226,2.095,3.404,4.713,3.404,7.725c0,4.19-2.488,8.381-7.333,12.57
	c-6.809,6.023-14.665,8.904-23.7,8.904c-5.499,0-10.737-1.179-15.712-3.536c-6.154-3.011-11.129-7.332-14.796-13.093
	c-3.666-5.762-5.499-12.047-5.499-18.986c0-10.213,3.797-18.986,11.392-26.188C107.5,363.528,115.618,360.385,125.307,360.254z
	 M182.657,385.001l12.57-18.332c2.357-3.404,5.5-5.106,9.297-5.106c3.142,0,5.761,1.047,7.987,3.273
	c2.226,2.226,3.405,4.845,3.405,7.856c0,2.226-0.655,4.19-1.833,6.023l-11.392,16.498l13.879,17.676
	c1.44,1.703,2.095,3.797,2.095,6.154c0,3.143-1.047,5.762-3.273,7.987s-4.845,3.404-7.987,3.404c-3.404,0-6.023-1.048-7.856-3.273
	l-17.022-21.212v11.784c0,3.404-0.524,5.893-1.702,7.856c-2.095,3.404-5.237,5.106-9.296,5.106c-3.667,0-6.547-1.179-8.511-3.666
	c-1.833-2.226-2.88-5.368-2.88-9.034v-43.865c0-3.535,0.917-6.546,2.88-8.903c2.226-2.357,4.976-3.667,8.511-3.667
	c3.404,0,6.154,1.179,8.511,3.667c1.309,1.309,2.095,2.75,2.357,4.059c0.262,0.917,0.262,2.488,0.262,4.844V385.001z"/>
<path id="Green" fill="#2BDE73" d="M232.675,404.249c2.488,0,5.106,1.048,7.987,3.273c3.535,2.749,5.892,4.06,7.201,4.06
	c1.964,0,2.881-1.048,2.881-3.012c0-1.048-0.524-1.965-1.702-2.75c-0.655-0.393-3.928-1.702-10.083-3.797
	c-9.951-3.535-14.927-9.952-14.927-19.51c0-7.202,2.619-12.832,7.856-16.891c4.714-3.535,10.344-5.368,17.153-5.368
	c5.892,0,10.999,1.44,15.319,4.19c4.321,2.75,6.547,6.416,6.547,10.868c0,2.619-0.786,4.845-2.488,6.678s-3.797,2.619-6.416,2.619
	c-2.75,0-5.761-1.309-9.166-3.928c-2.095-1.571-3.666-2.488-4.713-2.488c-1.833,0-2.75,0.917-2.75,2.619s2.226,3.273,6.809,4.583
	c6.285,1.964,10.999,4.321,14.403,7.202c4.583,3.797,6.809,9.035,6.809,15.844c0,7.463-2.488,13.225-7.594,17.414
	c-4.714,3.929-10.868,5.762-18.462,5.762c-7.595,0-13.879-1.965-18.855-6.023c-3.928-3.273-6.023-6.939-6.023-11.261
	c0-2.88,0.917-5.237,2.881-7.201C227.438,405.297,229.794,404.249,232.675,404.249z M292.514,382.906h-5.893
	c-3.273,0-6.023-0.917-8.118-2.619c-2.226-1.964-3.405-4.452-3.405-7.725c0-1.964,0.524-3.797,1.571-5.5
	c1.048-1.833,2.488-3.012,4.19-3.797c1.703-0.786,5.761-1.178,12.177-1.178h22.521c5.499,0,9.165,0.393,10.736,1.047
	c1.833,0.786,3.273,1.964,4.321,3.797c1.048,1.833,1.702,3.666,1.702,5.63c0,3.142-1.179,5.761-3.666,7.987
	c-1.702,1.571-4.583,2.488-8.643,2.488h-5.106v33.781c0,3.667-0.654,6.548-1.833,8.512c-2.095,3.404-5.237,5.106-9.165,5.106
	c-4.06,0-7.071-1.571-9.297-4.583c-1.309-1.964-2.095-4.845-2.095-8.772V382.906z M346.853,421.14
	c-1.048,2.488-2.095,4.452-3.273,5.631c-2.227,2.487-4.976,3.666-8.249,3.666c-3.929,0-7.07-1.571-9.166-4.714
	c-1.31-1.833-1.964-4.059-1.964-6.416c0-1.964,0.523-3.928,1.44-5.893l21.212-45.173c2.095-4.452,5.499-6.547,10.344-6.547
	s8.38,2.226,10.476,6.809l21.474,45.435c0.916,1.833,1.309,3.666,1.309,5.368c0,2.619-0.916,4.976-2.618,7.07
	c-2.227,2.75-5.106,4.06-8.643,4.06c-2.88,0-5.237-0.917-7.201-2.619c-1.44-1.309-2.881-3.535-4.32-6.547h-20.819V421.14z
	 M439.817,403.725l5.238,8.512c1.439,2.357,2.226,4.714,2.226,7.201c0,3.143-1.048,5.762-3.273,7.856s-4.845,3.143-7.987,3.143
	c-4.059,0-7.07-1.702-9.166-5.106l-9.296-15.32v9.166c0,3.143-1.048,5.762-3.143,7.987s-4.714,3.273-7.856,3.273
	c-3.797,0-6.809-1.31-8.772-4.19c-1.833-2.356-2.619-5.63-2.619-9.559v-41.769c0-8.642,4.583-12.832,13.88-12.832h14.271
	c4.714,0,9.035,1.309,12.963,4.059c4.06,2.75,6.939,6.154,8.773,10.475c1.439,3.273,2.095,6.547,2.095,9.82
	C447.15,392.596,444.662,398.357,439.817,403.725z M466.398,382.906h-5.893c-3.273,0-6.023-0.917-8.118-2.619
	c-2.226-1.964-3.404-4.452-3.404-7.725c0-1.964,0.523-3.797,1.571-5.5c1.047-1.833,2.487-3.012,4.189-3.797
	s5.762-1.178,12.178-1.178h22.521c5.499,0,9.165,0.393,10.736,1.047c1.833,0.786,3.273,1.964,4.321,3.797
	c1.047,1.833,1.702,3.666,1.702,5.63c0,3.142-1.179,5.761-3.666,7.987c-1.703,1.571-4.583,2.488-8.643,2.488h-5.106v33.781
	c0,3.667-0.654,6.548-1.833,8.512c-2.095,3.404-5.237,5.106-9.166,5.106c-4.059,0-7.07-1.571-9.296-4.583
	c-1.31-1.964-2.095-4.845-2.095-8.772V382.906z M532.652,408.963h10.213c4.189,0,7.332,0.916,9.428,2.619
	c2.356,2.095,3.666,4.713,3.666,7.986s-1.179,6.023-3.666,7.987c-1.833,1.571-4.976,2.357-9.297,2.357h-17.415
	c-4.059,0-6.939-0.263-8.511-0.917c-3.012-1.179-4.976-3.273-5.892-6.023c-0.655-1.833-0.917-4.713-0.917-8.772v-36.924
	c0-3.143,0.131-5.106,0.262-6.154c0.393-2.095,1.179-3.928,2.619-5.5c1.571-1.702,3.666-2.75,6.023-3.273
	c1.178-0.262,3.535-0.262,7.07-0.262h13.355c3.666,0,5.762,0,6.416,0.131c2.356,0.262,4.32,0.917,5.893,2.095
	c2.749,2.095,4.059,4.713,4.059,7.987c0,3.536-1.179,6.285-3.535,8.249c-2.096,1.702-4.976,2.488-8.643,2.488h-10.998v4.583h8.772
	c2.619,0,4.714,0.655,6.416,2.095c1.833,1.44,2.619,3.404,2.619,6.023c0,5.368-3.273,8.118-9.82,8.118h-7.987v5.106H532.652z
	 M604.537,403.725l5.237,8.512c1.44,2.357,2.226,4.714,2.226,7.201c0,3.143-1.048,5.762-3.273,7.856s-4.845,3.143-7.987,3.143
	c-4.059,0-7.07-1.702-9.165-5.106l-9.297-15.32v9.166c0,3.143-1.048,5.762-3.143,7.987s-4.714,3.273-7.856,3.273
	c-3.797,0-6.809-1.31-8.772-4.19c-1.833-2.356-2.619-5.63-2.619-9.559v-41.769c0-8.642,4.583-12.832,13.88-12.832h14.271
	c4.714,0,9.035,1.309,12.963,4.059c4.06,2.75,6.94,6.154,8.773,10.475c1.44,3.273,2.095,6.547,2.095,9.82
	C611.869,392.596,609.381,398.357,604.537,403.725z"/>
</svg>
